<svg width="12" height="13" viewBox="0 0 12 13" fill="none" xmlns="http://www.w3.org/2000/svg">
<path d="M6.00751 0.210938C2.70338 0.210938 0 2.91094 0 6.21094C0 9.51094 2.70338 12.2109 6.00751 12.2109C7.65957 12.2109 9.19149 11.5659 10.2728 10.4709L9.19149 9.39094C8.38048 10.2009 7.25407 10.7109 5.99249 10.7109C3.49937 10.7109 1.48686 8.70094 1.48686 6.21094C1.48686 3.72094 3.49937 1.71094 5.99249 1.71094C7.23905 1.71094 8.3204 2.25094 9.13141 3.07594L7.49437 4.71094H12V0.210938L10.2128 1.99594C9.13141 0.915938 7.64456 0.210938 5.99249 0.210938H6.00751Z" fill="#F3F1EA"/>
</svg>
